<?xml version="1.0" encoding="utf-8"?>
<!-- Generator: Adobe Illustrator 28.4.1, SVG Export Plug-In . SVG Version: 6.00 Build 0)  -->
<svg version="1.1" id="Layer_1" xmlns="http://www.w3.org/2000/svg" xmlns:xlink="http://www.w3.org/1999/xlink" x="0px" y="0px"
	 viewBox="0 0 456 456" style="enable-background:new 0 0 456 456;" xml:space="preserve">
<style type="text/css">
	.st0{fill:#2195F2;}
	.st1{fill:#EB407A;}
	.st2{fill:#455A64;}
	.st3{fill:#484451;}
	.st4{clip-path:url(#SVGID_00000107546639648074823000000007405171216460222880_);fill:#455A64;}
</style>
<g>
	<path class="st0" d="M114,175.1c-46.9,0-85.2-38-85.1-84.9C28.9,43.4,66.1,5,114,5.1c47.8,0.1,84.8,38.1,85,85.1
		C199.2,137,160.9,175.1,114,175.1z"/>
	<path class="st1" d="M301.2,175.1c-46.9,0-85.2-38.1-85.1-85c0.2-46.8,36.9-85,84.9-85.1c47.9-0.1,85.1,38.2,85.2,85.1
		C386.3,137.1,348,175.1,301.2,175.1z"/>
	<path class="st2" d="M62.9,299.5c0,6.5,0.1,13,0,19.5c-0.1,3.9-1.6,7.1-5.4,8.6c-3.2,1.3-6.4,0.7-9-1.8c-2.4-2.3-2.7-5.3-2.7-8.4
		c0-12.2-0.1-24.4,0.1-36.6c0-2.9-0.7-4-3.7-3.7c-1.9,0.2-4,0.1-5.9-0.2c-4.2-0.5-7.2-3.9-7.4-8c-0.2-3.8,2.6-7.3,6.5-8.4
		c1.6-0.5,3.2-0.4,4.8-0.4c5.5,0,5.5,0,5.5-5.4c0-4.9,0.4-9.8,2.7-14.2c5-9.6,13.1-14.1,23.7-14.4c3.2-0.1,6.5-0.4,9.7,0.5
		c3.8,1,6.4,4.2,6.4,8.1c0,3.9-2.6,7.1-6.4,8.1c-3.1,0.8-6.2,0.4-9.4,0.5c-6.3,0.2-9.4,3.3-9.6,9.5c-0.2,7.4-0.2,7.4,7.3,7.4
		c3,0,6.1-0.1,9.1,0c5.5,0.3,9,3.8,8.9,8.7c-0.1,4.8-3.6,8-9,8.2c-4.4,0.1-8.8,0.2-13.3,0c-2.4-0.1-3.2,0.6-3.2,3.1
		C63,286.7,62.9,293.1,62.9,299.5z"/>
	<path class="st2" d="M114,277.3c0,13.7,0,27.4,0,41.1c0,6.6-4.1,10.5-9.9,9.6c-3.7-0.6-6.3-3.1-6.8-6.8c-0.2-1.1-0.2-2.3-0.2-3.5
		c0-27,0-53.9,0-80.9c0-5.7,2.1-9.1,6.1-10.1c6.1-1.6,10.8,2.4,10.9,9.4c0.1,11.6,0,23.2,0,34.9C114,273.1,114,275.2,114,277.3z"/>
	<path class="st2" d="M148,294.5c0,8,0.1,16,0,24c-0.1,6.9-4.7,10.8-10.7,9.4c-3.8-0.9-6.4-4.1-6.4-8.9c-0.1-16.5-0.1-33,0-49.5
		c0-5,2.5-7.9,6.7-8.9c3.6-0.9,7.2,0.7,9.1,4c1.1,2,1.3,4.2,1.3,6.4C148,278.9,148,286.7,148,294.5z"/>
	<path class="st2" d="M148.3,234.6c0.1,4.6-3.6,8.5-8.2,8.6c-4.6,0.2-8.7-3.8-8.7-8.5c0-4.5,3.9-8.4,8.4-8.4
		C144.4,226.2,148.3,230,148.3,234.6z"/>
	<path class="st3" d="M413.1,419.8c-12.6-13.2-25.2-26.4-38.9-38.8c-7.5-6.8-7.8-11.6-1.7-19.6c16.6-21.8,23.1-47.1,24.3-69.8
		c0.5-59.8-35.6-110.2-88.6-127.8c-52.4-17.7-111.4,1.3-144.8,46.5c-32.9,44.4-33.3,106-0.7,151.8c32,45.1,93.4,69.2,143.5,45.6
		c42.9-20.3,38.3-27.2,60.7-0.5c1.8,2.1,26.4,27.4,28.6,29c8.3,6.3,15.1,22.8,27.7,9.9C434,435,420.2,427.2,413.1,419.8L413.1,419.8
		z M267.9,390.9c-57.7,0.1-105.1-47.1-105.1-104.5c0.1-56.5,46.9-103.6,103.4-104.4c57-0.6,105.5,46.7,106.2,103.6
		C372.9,342.5,325.2,390.7,267.9,390.9z"/>
	<g>
		<g>
			<defs>
				<path id="SVGID_1_" d="M372.4,286.4c-1.5,13.3,2.3,28.9,0.8,44.6c-1.1,15.6-7.5,31.2-18.6,42.2c-11,11.1-26.7,17.5-42.3,18.5
					c-15.7,1.5-31.3-2.3-44.7-0.8c-13.4-1.5-29,2.3-44.7,0.8c-15.6-1.1-31.3-7.4-42.3-18.6c-11.1-10.9-17.5-26.6-18.6-42.2
					c-1.5-15.7,2.3-31.2,0.8-44.6c1.5-13.3-2.3-28.9-0.8-44.6c1.1-15.6,7.5-31.2,18.6-42.2c11-11.1,26.7-17.5,42.3-18.5
					c15.7-1.5,31.3,2.3,44.7,0.8c13.4,1.5,29-2.3,44.7-0.8c15.6,1.1,31.3,7.4,42.3,18.6c11.1,10.9,17.5,26.6,18.6,42.2
					C374.7,257.5,370.9,273.1,372.4,286.4z"/>
			</defs>
			<clipPath id="SVGID_00000030463325459251472030000018174273196580077972_">
				<use xlink:href="#SVGID_1_"  style="overflow:visible;"/>
			</clipPath>
		</g>
		<g>
			<defs>
				<path id="SVGID_00000134936221031699204590000016524577893979749025_" d="M372.4,286.4c-1.5,13.3,2.3,28.9,0.8,44.6
					c-1.1,15.6-7.5,31.2-18.6,42.2c-11,11.1-26.7,17.5-42.3,18.5c-15.7,1.5-31.3-2.3-44.7-0.8c-13.4-1.5-29,2.3-44.7,0.8
					c-15.6-1.1-31.3-7.4-42.3-18.6c-11.1-10.9-17.5-26.6-18.6-42.2c-1.5-15.7,2.3-31.2,0.8-44.6c1.5-13.3-2.3-28.9-0.8-44.6
					c1.1-15.6,7.5-31.2,18.6-42.2c11-11.1,26.7-17.5,42.3-18.5c15.7-1.5,31.3,2.3,44.7,0.8c13.4,1.5,29-2.3,44.7-0.8
					c15.6,1.1,31.3,7.4,42.3,18.6c11.1,10.9,17.5,26.6,18.6,42.2C374.7,257.5,370.9,273.1,372.4,286.4z"/>
			</defs>
			<clipPath id="SVGID_00000096058137865286004990000012894230458618267533_">
				<use xlink:href="#SVGID_00000134936221031699204590000016524577893979749025_"  style="overflow:visible;"/>
			</clipPath>
			<path style="clip-path:url(#SVGID_00000096058137865286004990000012894230458618267533_);fill:#455A64;" d="M266.7,258.4
				c7.4-4.8,13.6-9,19.8-12.5c9.2-5.2,18.8-1.4,21.8,8.2c1.8,5.8-0.4,11.3-6.7,15.8c-6.9,4.8-14.1,9.9-21.7,14.5
				c-4.3,2.6-4.2,4.2-0.7,7.6c13.5,13.1,26.3,26.1,37.1,37.4c6.6,7,4.8,15.8-3.4,20.6c-5.3,3.1-11,2.7-16-1.8
				c-7.8-6.9-16.2-14.9-25.1-23.3c-1.3-1.2-2.2-3.1-5.3-3.5c0,7.5,0.2,14.5,0,21.2c-0.2,5-3.4,8.2-8.2,9.8
				c-4.7,1.5-9.4,0.9-13.6-2.2c-3.6-2.7-5.3-6.3-5.5-10.4c-2.1-41.5-1.5-97.7,1.7-131.1c0.7-6.5,6.4-10.5,13.4-10.7
				c7-0.2,12.2,3.4,12.4,10C266.9,221.3,266.7,238.4,266.7,258.4z"/>
			<path style="clip-path:url(#SVGID_00000096058137865286004990000012894230458618267533_);fill:#455A64;" d="M173.7,250
				c10.6-2.9,22.6,0.4,33.3,11.4c5,5,5.5,13.2,1.1,18.9c-4.6,6-11.2,6.7-16,1.8c-8.1-8.1-16-10.2-22.3-8c-6.7,2.6-8.2,12.1-7.9,22.6
				c0.4,11.2,3,21.4,10.5,24c6,2,12.9,0.5,19.8-5.3c2.4-1.9,5-3.5,8.6-2.8c4.6,1,8.4,4.1,10.4,9.2c2,5.3,1.5,10.2-2,13.3
				c-20.3,18.1-48.6,9.5-47.7-17.9c0.3-12.2,0.9-22.5,0-33.3c-0.4-10.5-2.4-21.5,3.8-28.6C167.6,252.6,171.1,250.5,173.7,250z"/>
			<path style="clip-path:url(#SVGID_00000096058137865286004990000012894230458618267533_);fill:#455A64;" d="M362.7,261.4
				c5.5-6.1,9.9-7.4,11-5.1c0.6,1.3-0.1,5.2-0.2,9.5c-0.2,4.4,0.5,8,1,9.4c0.2,0.8,0.2,0.7,0,0.7c-1.6-0.4-10.4,13.9-11.5,32.2
				c-0.6,7.9-1.2,15.6-2.2,23c-0.7,4.8-2.4,9.2-6.2,12.1c-3.2,2.5-6.4,2.9-9,0.8c-2.4-2-2.7-5.7-2.2-9.8c2.6-22.5,3.2-48.8,1.9-73.1
				c-0.4-8,2.1-12,6.6-12.7c3.8-0.6,7.4,2.3,9.3,7.2C361.7,257.5,362.1,259.2,362.7,261.4z"/>
		</g>
		<g>
			<defs>
				<path id="SVGID_00000077291010120006636300000008189217302329121201_" d="M372.4,286.4c-1.5,13.3,2.3,28.9,0.8,44.6
					c-1.1,15.6-7.5,31.2-18.6,42.2c-11,11.1-26.7,17.5-42.3,18.5c-15.7,1.5-31.3-2.3-44.7-0.8c-13.4-1.5-29,2.3-44.7,0.8
					c-15.6-1.1-31.3-7.4-42.3-18.6c-11.1-10.9-17.5-26.6-18.6-42.2c-1.5-15.7,2.3-31.2,0.8-44.6c1.5-13.3-2.3-28.9-0.8-44.6
					c1.1-15.6,7.5-31.2,18.6-42.2c11-11.1,26.7-17.5,42.3-18.5c15.7-1.5,31.3,2.3,44.7,0.8c13.4,1.5,29-2.3,44.7-0.8
					c15.6,1.1,31.3,7.4,42.3,18.6c11.1,10.9,17.5,26.6,18.6,42.2C374.7,257.5,370.9,273.1,372.4,286.4z"/>
			</defs>
			<clipPath id="SVGID_00000023996626780494839280000003063037901662056082_">
				<use xlink:href="#SVGID_00000077291010120006636300000008189217302329121201_"  style="overflow:visible;"/>
			</clipPath>
		</g>
	</g>
</g>
</svg>
