<?xml version="1.0" encoding="utf-8"?>
<!-- Generator: Adobe Illustrator 28.4.1, SVG Export Plug-In . SVG Version: 6.00 Build 0)  -->
<svg version="1.1" id="Layer_1" xmlns="http://www.w3.org/2000/svg" xmlns:xlink="http://www.w3.org/1999/xlink" x="0px" y="0px"
	 viewBox="0 0 256 256" style="enable-background:new 0 0 256 256;" xml:space="preserve">
<style type="text/css">
	.st0{fill:#1E234E;}
	.st1{fill:#FDFDFE;}
	.st2{fill:#1D224C;}
	.st3{fill:#1E234D;}
</style>
<path class="st0" d="M177,127.9c0.2,27.3-20.9,48.6-48.5,48.8C100.9,177,79.2,156,79,128.9c-0.2-27.2,20.9-48.6,48.5-48.9
	C155,79.8,176.8,100.8,177,127.9z"/>
<path class="st0" d="M251,112.9c-28.1-46.5-69.5-69.2-123-71.8C74.4,43.8,33,66.6,4.9,113C-1.7,124-1.6,133,5,143.8
	c28.2,46.2,69.2,71,123.1,71s94.8-25,123-71.1C257.7,132.8,257.6,123.8,251,112.9L251,112.9z M230.2,145.1
	c-46,70.6-157.4,70.9-203.2,0.4c-8.3-12.7-8-23.1,0.6-35.1c24.9-34.5,59-51,100.8-52.8c41.6,2.3,76,18.1,100.8,52.8
	C237.6,122.3,238.6,132.2,230.2,145.1z"/>
<path class="st1" d="M177,127.9c0.2,27.3-20.9,48.6-48.5,48.8C100.9,177,79.2,156,79,128.9c-0.2-27.2,20.9-48.6,48.5-48.9
	C155,79.8,176.8,100.8,177,127.9z"/>
<path class="st2" d="M177,127.9c0.2,27.3-20.9,48.6-48.5,48.8C100.9,177,79.2,156,79,128.9c-0.2-27.2,20.9-48.6,48.5-48.9
	C155,79.8,176.8,100.8,177,127.9z"/>
<path class="st3" d="M249.8,250.7c-11.3,11.4-17.2,2-24-4.8C154,173.4,82.2,101,10.5,28.4C4.6,22.5-4.7,16.7,2.8,6.1
	c0,0,0.1-0.1,0.1-0.1C7.8-1,17.8-2,24.1,3.7c1.4,1.2,2.7,2.5,4.1,3.8c72.4,73,144.7,146,217,219C252,233.4,260.8,239.5,249.8,250.7z
	"/>
</svg>
