<?xml version="1.0" encoding="utf-8"?>
<!-- Generator: Adobe Illustrator 28.4.1, SVG Export Plug-In . SVG Version: 6.00 Build 0)  -->
<svg version="1.1" id="Layer_1" xmlns="http://www.w3.org/2000/svg" xmlns:xlink="http://www.w3.org/1999/xlink" x="0px" y="0px"
	 viewBox="0 0 1024 389.6" style="enable-background:new 0 0 1024 389.6;" xml:space="preserve">
<style type="text/css">
	.st0{fill:#2195F2;}
	.st1{fill:#EB407A;}
	.st2{fill:#455A64;}
	.st3{fill:#484451;}
	.st4{clip-path:url(#SVGID_00000119796385053028920880000014259191848361194882_);fill:#455A64;}
</style>
<g>
	<g>
		<path class="st0" d="M135.9,296.6C79.8,296.6,34,251.1,34,195c0-56,44.5-102,101.9-101.9c57.2,0.1,101.4,45.6,101.7,101.8
			C237.9,250.9,192,296.5,135.9,296.6z"/>
		<path class="st1" d="M359.8,296.6c-56.1,0-102-45.6-101.8-101.7c0.2-55.9,44.2-101.7,101.6-101.8c57.3-0.2,101.9,45.7,102,101.9
			C461.7,251,415.9,296.6,359.8,296.6z"/>
	</g>
	<g>
		<path class="st2" d="M554.2,189.3c0,7.8,0.1,15.6,0,23.4c-0.1,4.6-1.9,8.5-6.4,10.3c-3.9,1.5-7.7,0.9-10.8-2.1
			c-2.9-2.7-3.2-6.3-3.2-10c0-14.6-0.1-29.2,0.1-43.8c0-3.4-0.8-4.8-4.4-4.4c-2.3,0.3-4.7,0.1-7.1-0.2c-5-0.6-8.6-4.6-8.8-9.5
			c-0.2-4.6,3.1-8.7,7.8-10c1.9-0.5,3.8-0.5,5.8-0.5c6.6,0,6.6,0,6.6-6.5c0-5.9,0.5-11.7,3.2-17c5.9-11.5,15.7-16.9,28.4-17.2
			c3.9-0.1,7.8-0.4,11.6,0.5c4.5,1.1,7.6,5.1,7.6,9.7c0,4.7-3.1,8.5-7.7,9.6c-3.7,1-7.5,0.5-11.2,0.6c-7.5,0.2-11.2,3.9-11.4,11.4
			c-0.2,8.9-0.2,8.9,8.8,8.9c3.6,0,7.2-0.1,10.9,0c6.5,0.3,10.8,4.6,10.7,10.4c-0.1,5.7-4.3,9.6-10.8,9.8c-5.3,0.2-10.6,0.2-15.9,0
			c-2.9-0.1-3.9,0.7-3.8,3.7C554.3,174,554.2,181.6,554.2,189.3z"/>
		<path class="st2" d="M615.2,162.8c0,16.4,0.1,32.8,0,49.2c0,7.9-5,12.6-11.8,11.5c-4.4-0.7-7.5-3.8-8.2-8.2
			c-0.2-1.4-0.3-2.8-0.3-4.2c0-32.3,0-64.5,0-96.8c0-6.8,2.5-10.9,7.3-12.1c7.3-1.9,13,2.9,13,11.3c0.1,13.9,0,27.8,0,41.7
			C615.2,157.7,615.2,160.3,615.2,162.8z"/>
		<path class="st2" d="M656,183.3c0,9.6,0.1,19.2,0,28.8c-0.1,8.2-5.6,12.9-12.8,11.3c-4.5-1.1-7.6-4.9-7.7-10.6
			c-0.1-19.7-0.2-39.5,0-59.2c0-6,3-9.4,8-10.7c4.3-1.1,8.7,0.8,10.9,4.8c1.3,2.4,1.5,5,1.5,7.7C656,164.7,656,174,656,183.3z"/>
		<path class="st2" d="M656.4,111.7c0.1,5.5-4.3,10.1-9.8,10.3c-5.5,0.2-10.5-4.6-10.4-10.2c0-5.4,4.6-10,10.1-10.1
			C651.6,101.6,656.3,106.2,656.4,111.7z"/>
		<path class="st3" d="M973.2,333.3c-15.1-15.8-30.2-31.6-46.6-46.4c-8.9-8.1-9.3-13.9-2.1-23.5c19.9-26.1,27.6-56.3,29.1-83.5
			c0.5-71.5-42.6-131.8-106-153c-62.8-21.1-133.3,1.5-173.3,55.6c-39.4,53.1-39.8,126.9-0.8,181.7c38.3,54,111.8,82.8,171.7,54.5
			c51.4-24.3,45.9-32.5,72.6-0.5c2.2,2.5,31.6,32.8,34.2,34.7c9.9,7.6,18.1,27.3,33.1,11.8C998.2,351.4,981.7,342.1,973.2,333.3
			L973.2,333.3z M799.5,298.7c-69.1,0.1-125.8-56.3-125.8-125.1c0.1-67.6,56.2-124,123.7-125c68.3-0.7,126.2,55.9,127,124
			C925.1,240.7,868,298.4,799.5,298.7z"/>
		<g>
			<g>
				<defs>
					<path id="SVGID_1_" d="M924.5,173.6c-1.8,16,2.8,34.6,1,53.3c-1.3,18.6-8.9,37.4-22.3,50.5c-13.1,13.3-31.9,20.9-50.6,22.2
						c-18.8,1.8-37.5-2.7-53.5-1c-16-1.8-34.7,2.8-53.5,0.9c-18.7-1.3-37.5-8.9-50.6-22.2c-13.3-13.1-21-31.8-22.2-50.4
						c-1.8-18.8,2.7-37.4,1-53.3c1.8-16-2.8-34.6-1-53.3c1.3-18.6,8.9-37.4,22.3-50.5c13.1-13.3,31.9-20.9,50.6-22.2
						c18.8-1.8,37.5,2.7,53.5,1c16,1.8,34.7-2.8,53.5-0.9c18.7,1.3,37.5,8.9,50.6,22.2c13.3,13.1,21,31.8,22.2,50.4
						C927.2,139.1,922.7,157.7,924.5,173.6z"/>
				</defs>
				<clipPath id="SVGID_00000181793445359883276490000013539435632540134844_">
					<use xlink:href="#SVGID_1_"  style="overflow:visible;"/>
				</clipPath>
			</g>
			<g>
				<defs>
					<path id="SVGID_00000166666280562106439180000007565051693858659774_" d="M924.5,173.6c-1.8,16,2.8,34.6,1,53.3
						c-1.3,18.6-8.9,37.4-22.3,50.5c-13.1,13.3-31.9,20.9-50.6,22.2c-18.8,1.8-37.5-2.7-53.5-1c-16-1.8-34.7,2.8-53.5,0.9
						c-18.7-1.3-37.5-8.9-50.6-22.2c-13.3-13.1-21-31.8-22.2-50.4c-1.8-18.8,2.7-37.4,1-53.3c1.8-16-2.8-34.6-1-53.3
						c1.3-18.6,8.9-37.4,22.3-50.5c13.1-13.3,31.9-20.9,50.6-22.2c18.8-1.8,37.5,2.7,53.5,1c16,1.8,34.7-2.8,53.5-0.9
						c18.7,1.3,37.5,8.9,50.6,22.2c13.3,13.1,21,31.8,22.2,50.4C927.2,139.1,922.7,157.7,924.5,173.6z"/>
				</defs>
				<clipPath id="SVGID_00000155126403131704354790000001168433200713042356_">
					<use xlink:href="#SVGID_00000166666280562106439180000007565051693858659774_"  style="overflow:visible;"/>
				</clipPath>
				<path style="clip-path:url(#SVGID_00000155126403131704354790000001168433200713042356_);fill:#455A64;" d="M798,140.2
					c8.9-5.8,16.2-10.7,23.7-15c11.1-6.3,22.5-1.7,26.1,9.8c2.1,6.9-0.5,13.6-8,18.9c-8.3,5.8-16.9,11.9-26,17.4
					c-5.1,3.1-5,5-0.9,9.1c16.1,15.7,31.4,31.3,44.4,44.8c7.9,8.4,5.7,18.9-4.1,24.7c-6.4,3.7-13.1,3.2-19.2-2.1
					c-9.4-8.2-19.4-17.8-30-27.8c-1.6-1.5-2.7-3.7-6.4-4.2c0,9,0.3,17.4,0,25.3c-0.2,5.9-4.1,9.8-9.8,11.7
					c-5.6,1.8-11.2,1.1-16.3-2.6c-4.4-3.2-6.3-7.5-6.5-12.5c-2.5-49.7-1.9-116.9,2-156.9c0.8-7.8,7.7-12.5,16.1-12.8
					c8.4-0.2,14.6,4,14.8,12C798.2,95.7,798,116.2,798,140.2z"/>
				<path style="clip-path:url(#SVGID_00000155126403131704354790000001168433200713042356_);fill:#455A64;" d="M686.7,130
					c12.7-3.5,27,0.5,39.9,13.6c6,6,6.6,15.8,1.3,22.6c-5.5,7.2-13.3,8-19.2,2.2c-9.7-9.7-19.2-12.3-26.7-9.6
					c-8,3.1-9.8,14.5-9.5,27.1c0.4,13.3,3.6,25.6,12.5,28.8c7.1,2.4,15.4,0.6,23.7-6.3c2.8-2.3,6-4.2,10.3-3.3
					c5.5,1.2,10.1,4.9,12.4,11c2.4,6.3,1.8,12.2-2.3,15.9c-24.3,21.7-58.2,11.4-57.1-21.4c0.3-14.6,1.1-26.9,0-39.8
					c-0.5-12.6-2.8-25.7,4.6-34.2C679.4,133.2,683.6,130.6,686.7,130z"/>
				<path style="clip-path:url(#SVGID_00000155126403131704354790000001168433200713042356_);fill:#455A64;" d="M912.9,143.8
					c6.6-7.3,11.8-8.9,13.1-6c0.7,1.6-0.1,6.3-0.3,11.4c-0.3,5.3,0.6,9.5,1.1,11.3c0.3,0.9,0.3,0.8,0,0.8
					c-1.9-0.5-12.5,16.6-13.8,38.6c-0.7,9.5-1.4,18.7-2.7,27.6c-0.8,5.8-2.9,11-7.4,14.5c-3.9,3-7.6,3.5-10.7,1
					c-2.9-2.4-3.3-6.8-2.7-11.7c3.1-26.9,3.8-58.4,2.3-87.5c-0.5-9.6,2.5-14.3,7.9-15.2c4.6-0.7,8.9,2.8,11.2,8.6
					C911.7,139,912.2,141.1,912.9,143.8z"/>
			</g>
			<g>
				<defs>
					<path id="SVGID_00000006678308708024545790000007830663161749508747_" d="M924.5,173.6c-1.8,16,2.8,34.6,1,53.3
						c-1.3,18.6-8.9,37.4-22.3,50.5c-13.1,13.3-31.9,20.9-50.6,22.2c-18.8,1.8-37.5-2.7-53.5-1c-16-1.8-34.7,2.8-53.5,0.9
						c-18.7-1.3-37.5-8.9-50.6-22.2c-13.3-13.1-21-31.8-22.2-50.4c-1.8-18.8,2.7-37.4,1-53.3c1.8-16-2.8-34.6-1-53.3
						c1.3-18.6,8.9-37.4,22.3-50.5c13.1-13.3,31.9-20.9,50.6-22.2c18.8-1.8,37.5,2.7,53.5,1c16,1.8,34.7-2.8,53.5-0.9
						c18.7,1.3,37.5,8.9,50.6,22.2c13.3,13.1,21,31.8,22.2,50.4C927.2,139.1,922.7,157.7,924.5,173.6z"/>
				</defs>
				<clipPath id="SVGID_00000011734649314908822260000003239235524983990437_">
					<use xlink:href="#SVGID_00000006678308708024545790000007830663161749508747_"  style="overflow:visible;"/>
				</clipPath>
			</g>
		</g>
	</g>
</g>
</svg>
